<svg xmlns="http://www.w3.org/2000/svg" xmlns:xlink="http://www.w3.org/1999/xlink" width="500" zoomAndPan="magnify" viewBox="0 0 375 374.999991" height="500" preserveAspectRatio="xMidYMid meet" version="1.0"><defs><g/><clipPath id="db7c8edf2f"><path d="M 112.5 86.875 L 262.5 86.875 L 262.5 236.875 L 112.5 236.875 Z M 112.5 86.875 " clip-rule="nonzero"/></clipPath></defs><g clip-path="url(#db7c8edf2f)"><path fill="#ffffff" d="M 253.347656 203.570312 L 246.992188 203.570312 L 246.992188 161.621094 C 246.992188 159.515625 245.285156 157.808594 243.179688 157.808594 L 191.058594 157.808594 L 191.058594 129.839844 L 207.585938 129.839844 C 212.492188 129.839844 216.484375 125.847656 216.484375 120.941406 L 216.484375 95.519531 C 216.484375 90.613281 212.492188 86.621094 207.585938 86.621094 L 166.90625 86.621094 C 162 86.621094 158.007812 90.613281 158.007812 95.519531 L 158.007812 120.941406 C 158.007812 125.847656 162 129.839844 166.90625 129.839844 L 183.433594 129.839844 L 183.433594 157.808594 L 131.3125 157.808594 C 129.207031 157.808594 127.5 159.515625 127.5 161.621094 L 127.5 203.570312 L 121.144531 203.570312 C 116.238281 203.570312 112.246094 207.5625 112.246094 212.46875 L 112.246094 227.722656 C 112.246094 232.628906 116.238281 236.621094 121.144531 236.621094 L 141.484375 236.621094 C 146.390625 236.621094 150.382812 232.628906 150.382812 227.722656 L 150.382812 212.46875 C 150.382812 207.5625 146.390625 203.570312 141.484375 203.570312 L 135.128906 203.570312 L 135.128906 165.433594 L 183.433594 165.433594 L 183.433594 203.570312 L 177.078125 203.570312 C 172.171875 203.570312 168.179688 207.5625 168.179688 212.46875 L 168.179688 227.722656 C 168.179688 232.628906 172.171875 236.621094 177.078125 236.621094 L 197.414062 236.621094 C 202.320312 236.621094 206.3125 232.628906 206.3125 227.722656 L 206.3125 212.46875 C 206.3125 207.5625 202.320312 203.570312 197.414062 203.570312 L 191.058594 203.570312 L 191.058594 165.433594 L 239.363281 165.433594 L 239.363281 203.570312 L 233.007812 203.570312 C 228.101562 203.570312 224.109375 207.5625 224.109375 212.46875 L 224.109375 227.722656 C 224.109375 232.628906 228.101562 236.621094 233.007812 236.621094 L 253.347656 236.621094 C 258.253906 236.621094 262.246094 232.628906 262.246094 227.722656 L 262.246094 212.46875 C 262.246094 207.5625 258.253906 203.570312 253.347656 203.570312 Z M 253.347656 203.570312 " fill-opacity="1" fill-rule="nonzero"/></g><g fill="#ffffff" fill-opacity="1"><g transform="translate(82.101561, 277.874982)"><g><path d="M 16.71875 0.484375 C 13.863281 0.484375 11.28125 -0.132812 8.96875 -1.375 C 6.664062 -2.613281 4.851562 -4.332031 3.53125 -6.53125 C 2.21875 -8.738281 1.5625 -11.226562 1.5625 -14 C 1.5625 -16.769531 2.21875 -19.253906 3.53125 -21.453125 C 4.851562 -23.660156 6.664062 -25.382812 8.96875 -26.625 C 11.28125 -27.863281 13.878906 -28.484375 16.765625 -28.484375 C 19.191406 -28.484375 21.382812 -28.054688 23.34375 -27.203125 C 25.300781 -26.347656 26.945312 -25.117188 28.28125 -23.515625 L 24.125 -19.6875 C 22.226562 -21.863281 19.878906 -22.953125 17.078125 -22.953125 C 15.347656 -22.953125 13.800781 -22.570312 12.4375 -21.8125 C 11.082031 -21.0625 10.023438 -20.003906 9.265625 -18.640625 C 8.503906 -17.273438 8.125 -15.726562 8.125 -14 C 8.125 -12.269531 8.503906 -10.722656 9.265625 -9.359375 C 10.023438 -7.992188 11.082031 -6.929688 12.4375 -6.171875 C 13.800781 -5.421875 15.347656 -5.046875 17.078125 -5.046875 C 19.878906 -5.046875 22.226562 -6.148438 24.125 -8.359375 L 28.28125 -4.515625 C 26.945312 -2.890625 25.289062 -1.648438 23.3125 -0.796875 C 21.34375 0.0546875 19.144531 0.484375 16.71875 0.484375 Z M 16.71875 0.484375 "/></g></g></g><g fill="#ffffff" fill-opacity="1"><g transform="translate(111.418644, 277.874982)"><g><path d="M 11.5625 -21.84375 C 14.894531 -21.84375 17.453125 -21.046875 19.234375 -19.453125 C 21.023438 -17.867188 21.921875 -15.476562 21.921875 -12.28125 L 21.921875 0 L 16.078125 0 L 16.078125 -2.6875 C 14.898438 -0.6875 12.710938 0.3125 9.515625 0.3125 C 7.867188 0.3125 6.4375 0.0351562 5.21875 -0.515625 C 4.007812 -1.078125 3.082031 -1.847656 2.4375 -2.828125 C 1.800781 -3.816406 1.484375 -4.941406 1.484375 -6.203125 C 1.484375 -8.203125 2.234375 -9.773438 3.734375 -10.921875 C 5.242188 -12.066406 7.570312 -12.640625 10.71875 -12.640625 L 15.6875 -12.640625 C 15.6875 -14.003906 15.269531 -15.050781 14.4375 -15.78125 C 13.613281 -16.507812 12.375 -16.875 10.71875 -16.875 C 9.570312 -16.875 8.445312 -16.691406 7.34375 -16.328125 C 6.238281 -15.972656 5.296875 -15.488281 4.515625 -14.875 L 2.28125 -19.234375 C 3.457031 -20.066406 4.863281 -20.707031 6.5 -21.15625 C 8.132812 -21.613281 9.820312 -21.84375 11.5625 -21.84375 Z M 11.078125 -3.875 C 12.148438 -3.875 13.097656 -4.117188 13.921875 -4.609375 C 14.742188 -5.109375 15.332031 -5.835938 15.6875 -6.796875 L 15.6875 -9 L 11.40625 -9 C 8.84375 -9 7.5625 -8.160156 7.5625 -6.484375 C 7.5625 -5.679688 7.875 -5.046875 8.5 -4.578125 C 9.125 -4.109375 9.984375 -3.875 11.078125 -3.875 Z M 11.078125 -3.875 "/></g></g></g><g fill="#ffffff" fill-opacity="1"><g transform="translate(136.09619, 277.874982)"><g><path d="M 16.765625 -1.046875 C 16.148438 -0.585938 15.394531 -0.242188 14.5 -0.015625 C 13.601562 0.203125 12.664062 0.3125 11.6875 0.3125 C 9.125 0.3125 7.140625 -0.335938 5.734375 -1.640625 C 4.335938 -2.941406 3.640625 -4.863281 3.640625 -7.40625 L 3.640625 -16.234375 L 0.3125 -16.234375 L 0.3125 -21.046875 L 3.640625 -21.046875 L 3.640625 -26.28125 L 9.875 -26.28125 L 9.875 -21.046875 L 15.234375 -21.046875 L 15.234375 -16.234375 L 9.875 -16.234375 L 9.875 -7.484375 C 9.875 -6.578125 10.109375 -5.875 10.578125 -5.375 C 11.046875 -4.882812 11.707031 -4.640625 12.5625 -4.640625 C 13.550781 -4.640625 14.390625 -4.90625 15.078125 -5.4375 Z M 16.765625 -1.046875 "/></g></g></g><g fill="#ffffff" fill-opacity="1"><g transform="translate(153.494459, 277.874982)"><g><path d="M 11.5625 -21.84375 C 14.894531 -21.84375 17.453125 -21.046875 19.234375 -19.453125 C 21.023438 -17.867188 21.921875 -15.476562 21.921875 -12.28125 L 21.921875 0 L 16.078125 0 L 16.078125 -2.6875 C 14.898438 -0.6875 12.710938 0.3125 9.515625 0.3125 C 7.867188 0.3125 6.4375 0.0351562 5.21875 -0.515625 C 4.007812 -1.078125 3.082031 -1.847656 2.4375 -2.828125 C 1.800781 -3.816406 1.484375 -4.941406 1.484375 -6.203125 C 1.484375 -8.203125 2.234375 -9.773438 3.734375 -10.921875 C 5.242188 -12.066406 7.570312 -12.640625 10.71875 -12.640625 L 15.6875 -12.640625 C 15.6875 -14.003906 15.269531 -15.050781 14.4375 -15.78125 C 13.613281 -16.507812 12.375 -16.875 10.71875 -16.875 C 9.570312 -16.875 8.445312 -16.691406 7.34375 -16.328125 C 6.238281 -15.972656 5.296875 -15.488281 4.515625 -14.875 L 2.28125 -19.234375 C 3.457031 -20.066406 4.863281 -20.707031 6.5 -21.15625 C 8.132812 -21.613281 9.820312 -21.84375 11.5625 -21.84375 Z M 11.078125 -3.875 C 12.148438 -3.875 13.097656 -4.117188 13.921875 -4.609375 C 14.742188 -5.109375 15.332031 -5.835938 15.6875 -6.796875 L 15.6875 -9 L 11.40625 -9 C 8.84375 -9 7.5625 -8.160156 7.5625 -6.484375 C 7.5625 -5.679688 7.875 -5.046875 8.5 -4.578125 C 9.125 -4.109375 9.984375 -3.875 11.078125 -3.875 Z M 11.078125 -3.875 "/></g></g></g><g fill="#ffffff" fill-opacity="1"><g transform="translate(178.172005, 277.874982)"><g><path d="M 22.234375 -14.4375 L 28.15625 -14.4375 L 28.15625 -3.078125 C 26.632812 -1.929688 24.875 -1.050781 22.875 -0.4375 C 20.875 0.175781 18.863281 0.484375 16.84375 0.484375 C 13.9375 0.484375 11.320312 -0.132812 9 -1.375 C 6.675781 -2.613281 4.851562 -4.332031 3.53125 -6.53125 C 2.21875 -8.738281 1.5625 -11.226562 1.5625 -14 C 1.5625 -16.769531 2.21875 -19.253906 3.53125 -21.453125 C 4.851562 -23.660156 6.6875 -25.382812 9.03125 -26.625 C 11.382812 -27.863281 14.023438 -28.484375 16.953125 -28.484375 C 19.410156 -28.484375 21.640625 -28.066406 23.640625 -27.234375 C 25.640625 -26.410156 27.320312 -25.210938 28.6875 -23.640625 L 24.515625 -19.796875 C 22.515625 -21.898438 20.101562 -22.953125 17.28125 -22.953125 C 15.488281 -22.953125 13.898438 -22.578125 12.515625 -21.828125 C 11.128906 -21.085938 10.050781 -20.035156 9.28125 -18.671875 C 8.507812 -17.316406 8.125 -15.757812 8.125 -14 C 8.125 -12.269531 8.507812 -10.722656 9.28125 -9.359375 C 10.050781 -7.992188 11.125 -6.929688 12.5 -6.171875 C 13.875 -5.421875 15.441406 -5.046875 17.203125 -5.046875 C 19.066406 -5.046875 20.742188 -5.441406 22.234375 -6.234375 Z M 22.234375 -14.4375 "/></g></g></g><g fill="#ffffff" fill-opacity="1"><g transform="translate(209.008944, 277.874982)"><g><path d="M 8.84375 -18.6875 C 9.582031 -19.71875 10.585938 -20.5 11.859375 -21.03125 C 13.128906 -21.570312 14.585938 -21.84375 16.234375 -21.84375 L 16.234375 -16.078125 C 15.546875 -16.128906 15.082031 -16.15625 14.84375 -16.15625 C 13.050781 -16.15625 11.648438 -15.65625 10.640625 -14.65625 C 9.628906 -13.65625 9.125 -12.15625 9.125 -10.15625 L 9.125 0 L 2.875 0 L 2.875 -21.515625 L 8.84375 -21.515625 Z M 8.84375 -18.6875 "/></g></g></g><g fill="#ffffff" fill-opacity="1"><g transform="translate(226.247235, 277.874982)"><g><path d="M 11.5625 -21.84375 C 14.894531 -21.84375 17.453125 -21.046875 19.234375 -19.453125 C 21.023438 -17.867188 21.921875 -15.476562 21.921875 -12.28125 L 21.921875 0 L 16.078125 0 L 16.078125 -2.6875 C 14.898438 -0.6875 12.710938 0.3125 9.515625 0.3125 C 7.867188 0.3125 6.4375 0.0351562 5.21875 -0.515625 C 4.007812 -1.078125 3.082031 -1.847656 2.4375 -2.828125 C 1.800781 -3.816406 1.484375 -4.941406 1.484375 -6.203125 C 1.484375 -8.203125 2.234375 -9.773438 3.734375 -10.921875 C 5.242188 -12.066406 7.570312 -12.640625 10.71875 -12.640625 L 15.6875 -12.640625 C 15.6875 -14.003906 15.269531 -15.050781 14.4375 -15.78125 C 13.613281 -16.507812 12.375 -16.875 10.71875 -16.875 C 9.570312 -16.875 8.445312 -16.691406 7.34375 -16.328125 C 6.238281 -15.972656 5.296875 -15.488281 4.515625 -14.875 L 2.28125 -19.234375 C 3.457031 -20.066406 4.863281 -20.707031 6.5 -21.15625 C 8.132812 -21.613281 9.820312 -21.84375 11.5625 -21.84375 Z M 11.078125 -3.875 C 12.148438 -3.875 13.097656 -4.117188 13.921875 -4.609375 C 14.742188 -5.109375 15.332031 -5.835938 15.6875 -6.796875 L 15.6875 -9 L 11.40625 -9 C 8.84375 -9 7.5625 -8.160156 7.5625 -6.484375 C 7.5625 -5.679688 7.875 -5.046875 8.5 -4.578125 C 9.125 -4.109375 9.984375 -3.875 11.078125 -3.875 Z M 11.078125 -3.875 "/></g></g></g><g fill="#ffffff" fill-opacity="1"><g transform="translate(250.924781, 277.874982)"><g><path d="M 30.4375 -21.84375 C 33.132812 -21.84375 35.273438 -21.046875 36.859375 -19.453125 C 38.441406 -17.867188 39.234375 -15.488281 39.234375 -12.3125 L 39.234375 0 L 33 0 L 33 -11.359375 C 33 -13.066406 32.644531 -14.335938 31.9375 -15.171875 C 31.226562 -16.015625 30.222656 -16.4375 28.921875 -16.4375 C 27.453125 -16.4375 26.289062 -15.960938 25.4375 -15.015625 C 24.582031 -14.066406 24.15625 -12.660156 24.15625 -10.796875 L 24.15625 0 L 17.921875 0 L 17.921875 -11.359375 C 17.921875 -14.742188 16.5625 -16.4375 13.84375 -16.4375 C 12.40625 -16.4375 11.257812 -15.960938 10.40625 -15.015625 C 9.550781 -14.066406 9.125 -12.660156 9.125 -10.796875 L 9.125 0 L 2.875 0 L 2.875 -21.515625 L 8.84375 -21.515625 L 8.84375 -19.046875 C 9.644531 -19.953125 10.625 -20.644531 11.78125 -21.125 C 12.9375 -21.601562 14.207031 -21.84375 15.59375 -21.84375 C 17.113281 -21.84375 18.488281 -21.539062 19.71875 -20.9375 C 20.945312 -20.34375 21.9375 -19.46875 22.6875 -18.3125 C 23.5625 -19.4375 24.671875 -20.304688 26.015625 -20.921875 C 27.367188 -21.535156 28.84375 -21.84375 30.4375 -21.84375 Z M 30.4375 -21.84375 "/></g></g></g></svg>